# xmcd
#
# Track frame offsets:
#	150
#	13180
#	24810
#	39057
#	48509
#	66902
#	84118
#	93488
#	109903
#	124780
#
# Disc length: 1762 seconds
#
# Revision: 0
# Processed by: cddbd v1.4PL0 Copyright (c) Steve Scherf et al.
# Submitted via: dBpowerAMP V4.0
#
DISCID=7106e00a
DTITLE=Marcel Dadi - New Style
DYEAR=1981
DGENRE=Picking
TTITLE0=Medly-Lover Come Back to Me/Lieberstraum
TTITLE1=Blue Angel
TTITLE2=Whispering
TTITLE3=Medley-Sweet Georgia Brown/Alabama Jubilee
TTITLE4=Medley-The Girl Friend of the Whirling Dervish/It don't Mean a Thing
TTITLE5=Medley-Jerry's Breakdown/Kicky
TTITLE6=One Note Samba
TTITLE7=Gravy Waltz
TTITLE8=Jordu
TTITLE9=Caravan
EXTD=1981 LP Pathé Marconi 2C068-72448\nPochette: D.Autret\n10 Morceaux (5+5) dont medleys\nTablatures vendues à part (biblio)
EXTT0=
EXTT1=
EXTT2=
EXTT3=
EXTT4=
EXTT5=
EXTT6=
EXTT7=
EXTT8=
EXTT9=
PLAYORDER=
